<svg width="66" height="66" fill="none" xmlns="http://www.w3.org/2000/svg"><path d="M16.594 5.656h1.093a1.094 1.094 0 100-2.187h-1.093a1.094 1.094 0 100 2.187zm5.469 0h1.093a1.094 1.094 0 100-2.187h-1.093a1.094 1.094 0 100 2.187z" fill="#01D2E4"/><path d="M64.719 11.125H39.563V5.656a5.469 5.469 0 00-5.47-5.468H5.657A5.469 5.469 0 00.188 5.655v49.219a5.469 5.469 0 005.468 5.469h20.782v4.375a1.093 1.093 0 001.093 1.094h21.875a1.093 1.093 0 001.094-1.094v-6.563a1.093 1.093 0 00-1.094-1.093h-1.093v-.427c0-.218.065-.43.185-.613l.711-1.071a7.657 7.657 0 001.291-4.255V39.562h14.219a1.093 1.093 0 001.094-1.093v-26.25a1.093 1.093 0 00-1.094-1.094zM2.375 5.656a3.291 3.291 0 013.281-3.281h28.438a3.291 3.291 0 013.281 3.281V6.75h-35V5.656zm0 3.282h35v2.187h-3.281A1.093 1.093 0 0033 12.219v12.239a3.415 3.415 0 00-2.188 3.194v9.723H29.72a3.291 3.291 0 00-3.282 3.281v8.75H2.375V8.938zm24.063 49.218H5.655a3.29 3.29 0 01-3.281-3.281v-3.281h24.128c.138 1.2.558 2.35 1.225 3.358l.711 1.071c.12.182.185.395.186.613v.426H27.53a1.093 1.093 0 00-1.093 1.094zm21.875 5.469H28.625V59.25h19.688v4.375zm0-12.928a5.48 5.48 0 01-.92 3.04l-.721 1.072a3.281 3.281 0 00-.547 1.827v.426H30.812v-.426a3.281 3.281 0 00-.546-1.827l-.722-1.072c-.6-.9-.92-1.958-.919-3.04v-10.04a1.093 1.093 0 011.094-1.094h1.093v5.468a1.093 1.093 0 102.188 0v-17.38a1.194 1.194 0 01.995-1.213 1.077 1.077 0 01.875.339 1.014 1.014 0 01.318.754v13.125a1.093 1.093 0 102.187 0v-5.468a1.093 1.093 0 011.518-1.008c.134.059.254.145.352.253a1.014 1.014 0 01.318.755v5.468a1.093 1.093 0 102.187 0v-4.375a1.093 1.093 0 011.518-1.007c.134.059.254.145.352.253a1.014 1.014 0 01.318.754v4.375a1.093 1.093 0 102.187 0V38.47a1.093 1.093 0 011.518-1.007c.134.058.254.144.352.252a1.014 1.014 0 01.318.755v12.228zm15.312-13.322H50.303a3.25 3.25 0 00-.755-1.214 3.347 3.347 0 00-3.532-.744 3.218 3.218 0 00-.843-1.444 3.374 3.374 0 00-3.937-.546 2.999 2.999 0 00-.438-.547 3.353 3.353 0 00-3.423-.788v-4.56a3.23 3.23 0 00-.952-2.309 3.334 3.334 0 00-1.236-.776V13.313h28.438v24.062z" fill="#01D2E4"/><path d="M8.938 34.094H7.843a1.094 1.094 0 100 2.187h1.093a1.094 1.094 0 100-2.187zm15.312 0H13.312a1.094 1.094 0 100 2.187H24.25a1.094 1.094 0 100-2.187zM8.938 38.469H7.843a1.094 1.094 0 100 2.187h1.093a1.094 1.094 0 100-2.187zm13.125 0h-8.75a1.094 1.094 0 100 2.187h8.75a1.094 1.094 0 100-2.187zM8.938 42.844H7.843a1.094 1.094 0 100 2.187h1.093a1.094 1.094 0 100-2.187zm13.125 0h-8.75a1.094 1.094 0 100 2.187h8.75a1.094 1.094 0 100-2.187zm25.156-10.938a2.187 2.187 0 100-4.375 2.187 2.187 0 000 4.375zm5.469 0a2.187 2.187 0 100-4.375 2.187 2.187 0 000 4.375z" fill="#01D2E4"/><path d="M42.844 18.781h1.221l.153 1.215v.032l.818 6.545a1.094 1.094 0 001.089.958h7.656a1.093 1.093 0 001.038-.748l2.188-6.562a1.093 1.093 0 00-1.038-1.44H46.27l-.154-1.23a1.094 1.094 0 00-1.085-.957h-2.187a1.094 1.094 0 100 2.187zm11.608 2.188l-1.46 4.375h-5.906l-.547-4.375h7.913zM22.063 53.781h-4.375a1.094 1.094 0 000 2.188h4.375a1.094 1.094 0 000-2.188zm7.923-39.341l-4.357-1.095a1.083 1.083 0 00-.266-.033h-2.207a1.093 1.093 0 00-1.093 1.094 2.187 2.187 0 01-4.375 0 1.093 1.093 0 00-1.094-1.094h-2.215c-.09 0-.18.011-.267.033L9.764 14.44a1.093 1.093 0 00-.826 1.061v4.375a1.093 1.093 0 001.359 1.06l3.015-.753v9.537a1.093 1.093 0 001.094 1.093h10.938a1.093 1.093 0 001.093-1.093v-9.537l3.016.754a1.094 1.094 0 001.36-1.061V15.5a1.093 1.093 0 00-.827-1.06zm-1.361 4.034l-3.015-.754a1.104 1.104 0 00-.939.2 1.093 1.093 0 00-.421.861v9.844H15.5v-9.844a1.094 1.094 0 00-1.36-1.06l-3.015.753v-2.12l3.39-.854h1.124a4.375 4.375 0 008.474 0h1.116l3.396.853v2.12z" fill="#01D2E4"/></svg>