<svg width="64" height="64" fill="none" xmlns="http://www.w3.org/2000/svg"><path d="M59.635 55.063A4.37 4.37 0 0064 50.698V6.25A6.257 6.257 0 0057.75 0H6.25A6.257 6.257 0 000 6.25v44.448a4.37 4.37 0 004.365 4.365H5.75V61.5h-4.5a1.25 1.25 0 000 2.5h61.5a1.25 1.25 0 000-2.5h-4.5v-6.437h1.385zM2.5 6.25A3.754 3.754 0 016.25 2.5h51.5a3.754 3.754 0 013.75 3.75V9H2.626a1.26 1.26 0 00-.126.006V6.25zM13.75 61.5h-5.5V50.25h5.5V61.5zm14 0h-5.5V36.429h5.5V61.5zm14 0h-5.5V47h5.5v14.5zM57 32.062h-8c-.69 0-1.25.56-1.25 1.25v6.313a1.25 1.25 0 002.5 0v-5.063h5.5V61.5h-5.5V48.031a1.25 1.25 0 00-2.5 0V61.5h-3.5V45.75c0-.69-.56-1.25-1.25-1.25h-8c-.69 0-1.25.56-1.25 1.25V61.5h-3.5V35.179c0-.69-.56-1.25-1.25-1.25h-8c-.69 0-1.25.56-1.25 1.25V61.5h-3.5V49c0-.69-.56-1.25-1.25-1.25H7c-.69 0-1.25.56-1.25 1.25v3.563H4.365A1.867 1.867 0 012.5 50.698V11.494c.041.004.083.006.126.006H61.5v39.198a1.867 1.867 0 01-1.865 1.865H58.25v-19.25c0-.69-.56-1.25-1.25-1.25z" fill="#01D2E4"/></svg>