<svg width="70" height="70" fill="none" xmlns="http://www.w3.org/2000/svg"><g clip-path="url(#clip0)"><path d="M70 29.355h-2.537l-3.781 1.99a5.618 5.618 0 00-1.346-.554L57.58 29.6v-.541a7.928 7.928 0 003.388-6.48v-1.973c0-4.386-3.437-8.056-7.66-8.184a8.462 8.462 0 00-.639.012l1.234-2.887-5.98-5.977L44.4 5.865a19.098 19.098 0 00-4.226-1.753L39.303 0h-8.605l-.87 4.113c-1.471.412-2.888 1-4.226 1.753l-3.525-2.294-5.973 5.974 1.212 2.89c-.046-.003-.09-.011-.137-.012a7.844 7.844 0 00-5.745 2.228 7.83 7.83 0 00-2.402 5.67v2.259a7.925 7.925 0 003.387 6.478v.542l-3.102.775-5.624-3.28H0v23.396l11.107 3.702h2.164l.27-.947 3.404 2.044a3.515 3.515 0 003.39 3.406 3.515 3.515 0 003.387 3.387 3.515 3.515 0 003.387 3.387 3.521 3.521 0 003.512 3.4c.705 0 1.397-.22 1.979-.612l1 .883a3.438 3.438 0 002.272.858h.209a3.438 3.438 0 003.43-3.391A3.434 3.434 0 0042.9 63.22a3.434 3.434 0 003.387-3.39 3.472 3.472 0 003.374-3.803L70 45.86V29.355zm-11.29-8.748v1.974a5.667 5.667 0 01-2.826 4.885l-.565.326.005 3.573 5.64 1.41-12.416 6.534v-3.041a5.618 5.618 0 00-1.617-3.935l3.875-.968V27.79l-.563-.326a5.661 5.661 0 01-2.824-4.883v-2.258c0-1.54.609-2.98 1.715-4.052a5.568 5.568 0 014.105-1.59c3.016.09 5.47 2.749 5.47 5.926zM36.702 38.422l-5.11-1.634a13.942 13.942 0 00-7.235-.33l-.647.144v-.334a3.385 3.385 0 012.565-3.287l6.467-1.616V27.79l-.563-.326a5.661 5.661 0 01-2.824-4.883v-2.258c0-1.54.608-2.98 1.715-4.052a5.582 5.582 0 014.105-1.59c3.016.09 5.47 2.749 5.47 5.926v1.974a5.667 5.667 0 01-2.826 4.885l-.564.326.004 3.573 6.466 1.616a3.385 3.385 0 012.565 3.287v4.23l-.279.147h-.692l-6.94-1.983a7.118 7.118 0 00-1.677-.24zm-12.74-21.524c2.121-4.108 6.389-6.737 11.038-6.737 4.605 0 8.855 2.594 10.991 6.646a7.852 7.852 0 00-.83 3.516v2.258a7.925 7.925 0 003.387 6.478v.542l-4.516 1.13-4.517-1.13v-.541a7.928 7.928 0 003.388-6.48v-1.973c0-4.386-3.436-8.056-7.66-8.184a7.844 7.844 0 00-5.746 2.227 7.838 7.838 0 00-2.4 5.673v2.258a7.925 7.925 0 003.387 6.478v.542l-4.516 1.13-4.517-1.13v-.541a7.928 7.928 0 003.388-6.48v-1.973a8.32 8.32 0 00-.876-3.709zM18.77 10.07l3.607-3.607 3.175 2.066.608-.373a16.847 16.847 0 014.888-2.027l.695-.167.786-3.704h4.943l.784 3.703.694.166a16.864 16.864 0 014.89 2.028l.607.373 3.175-2.066 3.602 3.603-1.28 2.999a7.892 7.892 0 00-2.384 1.584c-.046.045-.086.094-.13.14C44.77 10.56 40.066 7.903 35 7.903c-5.103 0-9.819 2.682-12.472 6.953a7.963 7.963 0 00-2.491-1.766l-1.267-3.02zm-4.093 21.295V27.79l-.563-.326a5.66 5.66 0 01-2.824-4.883v-2.258c0-1.54.609-2.98 1.715-4.052a5.573 5.573 0 014.105-1.59c3.016.09 5.47 2.749 5.47 5.926v1.974a5.667 5.667 0 01-2.825 4.885l-.565.326.005 3.573 3.873.968a5.618 5.618 0 00-1.616 3.935v.836l-3.522.783.091-.32.043-2.086-5.954-3.474 2.567-.642zm-12.419-2.01h.823l8.12 4.736-4.097 16.388-4.846-1.616V29.355zm9.215 22.58l-2.222-.74 3.98-15.92 2.575 1.502v.323l-4.238 14.835h-.095zm7.72 3.25c0-.332.135-.659.371-.894l1.985-1.985a1.267 1.267 0 011.79 1.79l-1.984 1.985a1.267 1.267 0 01-2.161-.895zm3.388 3.388c0-.333.134-.66.37-.895l1.985-1.985a1.267 1.267 0 011.79 1.79l-1.984 1.985a1.267 1.267 0 01-2.161-.895zm3.387 3.387c0-.333.134-.66.37-.895l1.985-1.985a1.267 1.267 0 011.79 1.79l-1.984 1.985a1.267 1.267 0 01-2.161-.895zm4.653 4.653a1.267 1.267 0 01-.896-2.161l1.985-1.985a1.267 1.267 0 011.79 1.79l-1.984 1.985c-.236.236-.562.37-.895.37zm5.46 1.129h-.21a1.17 1.17 0 01-.777-.295l-.845-.745.848-.848a3.51 3.51 0 00.711-1.049l1.027.855a1.179 1.179 0 01-.754 2.082zM46.205 57.58h-.195c-.283 0-.56-.1-.776-.283l-6.123-5.102-1.447 1.736 5.946 4.953a1.178 1.178 0 01-.755 2.083h-.247c-.274 0-.542-.097-.753-.274l-6.132-5.11-1.447 1.736 5.946 4.954a1.179 1.179 0 01-.754 2.08c-.434 0-.856-.153-1.188-.43l-2.52-2.1a3.512 3.512 0 00-3.032-1.973 3.515 3.515 0 00-3.387-3.387 3.515 3.515 0 00-3.387-3.387 3.52 3.52 0 00-3.51-3.4c-.928 0-1.836.376-2.492 1.032l-1.985 1.985c-.118.119-.216.253-.316.386L14.183 51l3.04-10.642 7.622-1.694c2-.447 4.108-.35 6.058.274l1.663.532-5.639 2.82a3.764 3.764 0 00-2.088 3.382v.223a3.787 3.787 0 003.782 3.782 3.77 3.77 0 001.946-.54l4.204-2.52a2.33 2.33 0 012.707.26l9.54 8.586a1.215 1.215 0 01-.812 2.118zm21.537-13.118L48.72 53.975a3.144 3.144 0 00-.194-.189l-9.538-8.585a4.547 4.547 0 00-5.381-.52l-4.206 2.522a1.525 1.525 0 01-2.305-1.308v-.223c0-.582.323-1.103.842-1.363l6.298-3.149a4.907 4.907 0 013.519-.326l7.095 2.026 1.718.043L67.742 31.76v12.703z" fill="#01D2E4"/></g><defs><clipPath id="clip0"><path fill="#fff" d="M0 0h70v70H0z"/></clipPath></defs></svg>