<svg width="16" height="12" fill="none" xmlns="http://www.w3.org/2000/svg"><path d="M15.988 1.447c0-.018.013-.036.012-.054l-4.883 4.704 4.877 4.555c.003-.033-.006-.066-.006-.099V1.447zm-5.616 5.374L8.38 8.74a.52.52 0 01-.717.006L5.674 6.893l-4.908 4.73c.119.044.247.077.381.077h13.74c.2 0 .387-.06.55-.151L10.371 6.82z" fill="#01D2E4"/><path d="M8.011 7.646L15.463.467A1.13 1.13 0 0014.887.3H1.147C.873.3.62.406.426.569L8.01 7.646zM0 1.622v8.931c0 .103.024.201.05.296l4.847-4.668L0 1.62z" fill="#01D2E4"/></svg>