<svg width="30" height="28" fill="none" xmlns="http://www.w3.org/2000/svg"><path d="M2.38 3.253C3.933 1.568 6.064.64 8.38.64c1.732 0 3.318.547 4.714 1.627A9.644 9.644 0 0115 4.258a9.64 9.64 0 011.906-1.99C18.302 1.188 19.888.64 21.619.64c2.317 0 4.448.927 6.001 2.612C29.155 4.917 30 7.19 30 9.657c0 2.537-.945 4.86-2.976 7.309-1.815 2.19-4.425 4.415-7.448 6.99-1.032.88-2.202 1.877-3.416 2.94a1.759 1.759 0 01-2.32 0 327.1 327.1 0 00-3.417-2.94c-3.022-2.575-5.632-4.8-7.448-6.99C.945 14.515 0 12.193 0 9.655 0 7.19.845 4.916 2.38 3.252z" fill="#FFED00"/></svg>