<svg width="12" height="18" fill="none" xmlns="http://www.w3.org/2000/svg"><path fill-rule="evenodd" clip-rule="evenodd" d="M.286 6.86C.286 3.627 2.84 1 5.978 1c3.139 0 5.692 2.628 5.692 5.86a5.943 5.943 0 01-1.023 3.351l-4.482 6.688a.226.226 0 01-.187.101.226.226 0 01-.187-.101l-4.483-6.69A5.942 5.942 0 01.286 6.86zM6 9a2.4 2.4 0 100-4.8A2.4 2.4 0 006 9z" fill="#FFED00"/><path d="M10.647 10.211l-.041-.028.041.028zm-4.482 6.688l.042.028-.042-.028zm-.374 0l-.042.028.042-.028zm-4.483-6.69l.042-.027-.042.028zM5.978.95C2.811.95.236 3.602.236 6.86h.1c0-3.205 2.532-5.81 5.642-5.81v-.1zm5.742 5.91c0-3.258-2.574-5.91-5.742-5.91v.1c3.11 0 5.642 2.605 5.642 5.81h.1zm-1.032 3.379a5.992 5.992 0 001.032-3.38h-.1a5.89 5.89 0 01-1.014 3.324l.082.056zm-4.481 6.688l4.482-6.688-.084-.056-4.481 6.688.083.056zm-.229.123a.276.276 0 00.229-.123l-.083-.056a.176.176 0 01-.146.079v.1zm-.229-.123a.276.276 0 00.23.123v-.1a.176.176 0 01-.147-.08l-.083.057zm-4.482-6.69l4.482 6.69.083-.056-4.482-6.689-.083.056zM.237 6.86c0 1.217.356 2.385 1.03 3.379l.083-.056A5.892 5.892 0 01.336 6.859h-.1zM8.35 6.6A2.35 2.35 0 016 8.95v.1A2.45 2.45 0 008.45 6.6h-.1zM6 4.25A2.35 2.35 0 018.35 6.6h.1A2.45 2.45 0 006 4.15v.1zM3.65 6.6A2.35 2.35 0 016 4.25v-.1A2.45 2.45 0 003.55 6.6h.1zM6 8.95A2.35 2.35 0 013.65 6.6h-.1A2.45 2.45 0 006 9.05v-.1z" fill="#FFED00"/></svg>