<svg width="40" height="40" fill="none" xmlns="http://www.w3.org/2000/svg"><circle cx="20" cy="20" r="18" fill="#fff" stroke="#fff" stroke-width="4"/><g clip-path="url(#clip0)"><path d="M21.35 29.96h-3.209a.972.972 0 01-.971-.97v-7.223h-1.873a.972.972 0 01-.972-.97V17.7c0-.535.436-.97.972-.97h1.872v-1.55c0-1.537.484-2.845 1.399-3.782.919-.94 2.203-1.438 3.713-1.438l2.448.004c.535 0 .97.436.97.97v2.874c0 .535-.436.97-.972.97l-1.648.001c-.502 0-.63.1-.657.131-.046.052-.1.196-.1.595v1.225h2.281a.973.973 0 01.981.97v3.096c0 .534-.437.97-.973.97h-2.288v7.224c0 .535-.436.97-.972.97zm-3.006-1.172h2.804v-7.546a.65.65 0 01.649-.648h2.611l.002-2.69h-2.613a.649.649 0 01-.65-.648v-1.75c0-.458.048-.979.394-1.37.419-.474 1.078-.528 1.538-.528l1.445-.001v-2.47l-2.244-.004c-2.427 0-3.936 1.551-3.936 4.048v2.075a.65.65 0 01-.649.647H15.5v2.691h2.195a.65.65 0 01.65.648v7.546zm6.382-17.65z" fill="#01D2E4"/></g><defs><clipPath id="clip0"><path fill="#fff" transform="translate(10 10)" d="M0 0h20v20H0z"/></clipPath></defs></svg>