<svg width="40" height="40" fill="none" xmlns="http://www.w3.org/2000/svg"><circle cx="20" cy="20" r="18" fill="#fff" stroke="#fff" stroke-width="4"/><g clip-path="url(#clip0)"><path d="M30 14.022c-1.258.058-1.23.053-1.373.065l.745-2.128s-2.325.856-2.915 1.009c-1.549-1.392-3.85-1.453-5.496-.442-1.347.829-2.07 2.251-1.83 3.914-2.622-.364-4.831-1.607-6.576-3.703l-.552-.663-.412.758a4.575 4.575 0 00-.487 3.08c.085.422.229.825.428 1.202l-.473-.183-.056.79c-.057.804.21 1.742.716 2.509.142.216.325.453.557.687l-.245-.037.299.906c.392 1.19 1.207 2.112 2.264 2.624-1.056.448-1.909.734-3.311 1.195L10 26.027l1.185.648c.452.247 2.048 1.072 3.626 1.32 3.506.55 7.454.102 10.112-2.292 2.239-2.016 2.973-4.884 2.82-7.869a1.867 1.867 0 01.349-1.213c.496-.663 1.905-2.594 1.908-2.599zm-2.845 1.897a3.037 3.037 0 00-.58 1.975c.153 3.01-.666 5.345-2.435 6.939-2.068 1.862-5.402 2.592-9.148 2.005-.678-.107-1.38-.345-1.96-.583 1.176-.404 2.084-.765 3.55-1.459l2.047-.968-2.26-.145c-1.082-.07-1.984-.594-2.538-1.446.295-.017.578-.064.86-.143l2.156-.6-2.173-.533a3.237 3.237 0 01-1.977-1.375 3.315 3.315 0 01-.429-.945c.218.058.472.1.882.14l2.011.2-1.593-1.244c-1.149-.896-1.61-2.241-1.272-3.535 3.584 3.717 7.792 3.438 8.216 3.536-.093-.905-.096-.907-.12-.994-.543-1.917.646-2.89 1.182-3.22 1.12-.689 2.898-.792 4.13.342.265.244.625.34.962.257.302-.075.55-.155.793-.241l-.506 1.443h.645c-.121.164-.267.36-.443.594z" fill="#01D2E4"/></g><defs><clipPath id="clip0"><path fill="#fff" transform="translate(10 10)" d="M0 0h20v20H0z"/></clipPath></defs></svg>