<svg width="40" height="40" fill="none" xmlns="http://www.w3.org/2000/svg"><circle cx="20" cy="20" r="18" fill="#fff" stroke="#fff" stroke-width="4"/><path d="M10.306 29.92h5.178V16.301h-5.178v13.617zm1.171-12.446h2.835v11.273h-2.835V17.474zm1.418-7.394A2.898 2.898 0 0010 12.976a2.898 2.898 0 002.895 2.895 2.898 2.898 0 002.894-2.895 2.898 2.898 0 00-2.894-2.894zm-1.723 2.895c0-.95.773-1.723 1.723-1.723a1.724 1.724 0 01-.001 3.446c-.95 0-1.722-.773-1.722-1.723zm18.816 7.602c-.185-2.65-2.396-4.693-5.137-4.693a5.148 5.148 0 00-3.295 1.183V16.3h-4.962v13.62h5.178v-7.45a1.524 1.524 0 013.045 0l.005 7.448H30V20.59l-.012-.013zm-9.387 8.17h-2.835V17.473h2.618v1.674l.938.005.174-.27a3.973 3.973 0 013.355-1.826c2.181 0 3.928 1.664 3.976 3.789l.001 7.902h-2.835l-.004-6.276a2.697 2.697 0 00-2.694-2.694 2.697 2.697 0 00-2.695 2.694v6.276z" fill="#01D2E4"/></svg>