<svg width="40" height="40" fill="none" xmlns="http://www.w3.org/2000/svg"><circle cx="20" cy="20" r="18" fill="#fff" stroke="#fff" stroke-width="4"/><g clip-path="url(#clip0)" fill="#01D2E4"><path d="M14.837 28.573a9.926 9.926 0 005.128 1.42c5.5 0 10.035-4.489 10.035-9.997C30 14.496 25.472 10 19.965 10c-5.491 0-9.958 4.484-9.958 9.996 0 1.84.49 3.62 1.42 5.167L10 30l4.837-1.427zm-3.658-8.577c0-4.866 3.941-8.825 8.786-8.825 4.887 0 8.864 3.96 8.864 8.825 0 4.867-3.977 8.825-8.864 8.825a8.755 8.755 0 01-4.726-1.378l-.226-.144-3.28.968.967-3.28-.143-.225a8.824 8.824 0 01-1.378-4.766z"/><path d="M14.868 18.154c.194 1.016.768 2.97 2.44 4.643 1.672 1.672 3.627 2.247 4.643 2.44 1.164.222 2.871.255 3.706-.58l.465-.465a1.243 1.243 0 000-1.759l-1.86-1.86a1.235 1.235 0 00-.88-.364c-.332 0-.644.13-.88.364l-.464.465c-.284.285-.82.286-1.107.004l-1.856-1.934a.731.731 0 01-.008-1.04l.465-.466a1.243 1.243 0 000-1.758l-1.86-1.86a1.245 1.245 0 00-1.76 0l-.464.464c-.666.666-.888 2.087-.58 3.706zm1.408-2.877c.488-.477.462-.486.516-.486.019 0 .037.007.051.02 1.96 1.972 1.882 1.856 1.882 1.912a.07.07 0 01-.021.051l-.465.465a1.9 1.9 0 00-.005 2.684l1.857 1.935.008.009c.74.74 2.024.743 2.767 0l.465-.465a.072.072 0 01.102 0c1.96 1.97 1.882 1.855 1.882 1.911a.07.07 0 01-.021.051l-.466.465c-.318.319-1.334.51-2.658.258-.884-.169-2.583-.668-4.033-2.118-1.45-1.45-1.95-3.15-2.118-4.034-.252-1.324-.062-2.34.257-2.658z"/></g><defs><clipPath id="clip0"><path fill="#fff" transform="translate(10 10)" d="M0 0h20v20H0z"/></clipPath></defs></svg>