<svg width="163" height="39" fill="none" xmlns="http://www.w3.org/2000/svg"><g clip-path="url(#clip0)" fill="#01D2E4"><path d="M29.667 13.257a8.215 8.215 0 004.818 5.595L49.98 0 .214.005A.215.215 0 000 .227c.153 3.676 4.056 5.828 7.345 5.828l14.971-.007a.474.474 0 11-.002.947H7.446a.214.214 0 00-.212.227c.212 3.376 3.74 5.035 6.382 5.035H24.25c.248 0 .468.183.49.43a.473.473 0 01-.47.518h-9.636a.214.214 0 00-.212.227c.212 3.271 3.618 4.946 6.275 4.948l9.7-.002c-.831-1.545-1.094-3.564-1.006-5.098.007-.163.237-.183.277-.023z"/><path d="M42.51 0h8.8l1.866 20.194L65.103 0H80L60.07 34.024H44.743L43.31 13.562 31.647 34.024H15.684L30.847 7.697C33.38 2.567 37.267 0 42.51 0z"/></g><path d="M69.544 34.162c-1.032 0-1.932-.18-2.7-.54-.768-.372-1.362-.894-1.782-1.566-.42-.672-.63-1.452-.63-2.34 0-1.068.258-2.028.774-2.88a5.505 5.505 0 012.142-2.016c.912-.492 1.938-.738 3.078-.738 1.032 0 1.932.186 2.7.558.768.36 1.362.876 1.782 1.548.42.66.63 1.434.63 2.322 0 1.068-.258 2.034-.774 2.898a5.505 5.505 0 01-2.142 2.016c-.9.492-1.926.738-3.078.738zm.198-2.754c.684 0 1.242-.252 1.674-.756.432-.504.648-1.158.648-1.962 0-.576-.162-1.032-.486-1.368-.324-.336-.774-.504-1.35-.504-.684 0-1.242.252-1.674.756-.432.504-.648 1.164-.648 1.98 0 .576.162 1.032.486 1.368.324.324.774.486 1.35.486zm18.763-7.164L82.547 34h-3.546l-2.07-9.756h3.384l1.188 5.976 3.618-5.976h3.384zm11.594 0L98.155 34h-3.24l.198-1.008c-.42.396-.894.69-1.422.882a4.558 4.558 0 01-1.602.288c-1.068 0-1.92-.288-2.556-.864-.624-.576-.936-1.398-.936-2.466 0-.396.042-.798.126-1.206l1.08-5.382h3.42l-1.008 5.058c-.048.228-.072.45-.072.666 0 .852.438 1.278 1.314 1.278.588 0 1.074-.18 1.458-.54.384-.372.648-.918.792-1.638l.972-4.824h3.42zm15.127-.162c1.032 0 1.86.288 2.484.864.624.576.936 1.392.936 2.448 0 .396-.042.798-.126 1.206l-1.062 5.4h-3.42l1.008-5.04c.048-.228.072-.456.072-.684 0-.432-.108-.756-.324-.972-.204-.216-.504-.324-.9-.324-1.092 0-1.782.702-2.07 2.106l-.99 4.914h-3.42l1.026-5.04c.048-.204.072-.426.072-.666 0-.432-.108-.756-.324-.972-.204-.228-.504-.342-.9-.342-1.104 0-1.8.714-2.088 2.142L104.228 34h-3.42l1.944-9.756h3.24l-.198.99c.804-.768 1.776-1.152 2.916-1.152.648 0 1.23.138 1.746.414.516.264.912.654 1.188 1.17a4.538 4.538 0 011.584-1.17 4.803 4.803 0 011.998-.414zm-20.644-.992c-.864 0-1.62-.162-2.268-.486a3.717 3.717 0 01-1.512-1.404c-.348-.612-.522-1.32-.522-2.124 0-1.068.234-2.028.702-2.88a5.103 5.103 0 011.944-1.998c.84-.492 1.782-.738 2.826-.738 1.32 0 2.364.36 3.132 1.08.78.72 1.17 1.692 1.17 2.916 0 1.068-.234 2.034-.702 2.898a5.193 5.193 0 01-1.962 2.016c-.828.48-1.764.72-2.808.72zm.09-1.134c.78 0 1.482-.186 2.106-.558a3.955 3.955 0 001.458-1.584c.36-.684.54-1.446.54-2.286 0-.924-.276-1.644-.828-2.16-.54-.528-1.302-.792-2.286-.792-.78 0-1.482.192-2.106.576a4.053 4.053 0 00-1.476 1.602c-.348.672-.522 1.428-.522 2.268 0 .924.27 1.644.81 2.16.552.516 1.32.774 2.304.774zm13.013-11.322c-.564 0-1.008.15-1.332.45-.324.3-.552.768-.684 1.404l-.216 1.044h2.898l-.216 1.08h-2.862L103.599 23h-1.278l1.674-8.388h-1.692l.198-1.08h1.71l.234-1.188c.18-.9.54-1.59 1.08-2.07.552-.48 1.272-.72 2.16-.72.384 0 .744.054 1.08.162.336.108.612.258.828.45l-.558.936c-.348-.312-.798-.468-1.35-.468zm3.022 9.504a4.351 4.351 0 00-.072.594c0 .84.456 1.26 1.368 1.26a2.37 2.37 0 001.458-.486l.306.972c-.54.408-1.242.612-2.106.612-.708 0-1.272-.192-1.692-.576-.408-.384-.612-.912-.612-1.584 0-.264.024-.51.072-.738l1.098-5.58h-1.674l.198-1.08h1.692l.414-2.07h1.278l-.414 2.07h2.88l-.216 1.08h-2.88l-1.098 5.526zm21.393-6.606L126.754 23h-1.242l-1.584-7.74L119.5 23h-1.224l-1.854-9.468h1.17l1.53 8.028 4.572-8.028h1.08l1.584 8.028 4.5-8.028h1.242zm10.678 0L140.888 23h-1.224l.306-1.494a4.753 4.753 0 01-1.62 1.17 5.062 5.062 0 01-2.07.414c-.804 0-1.518-.162-2.142-.486a3.53 3.53 0 01-1.458-1.386c-.348-.612-.522-1.326-.522-2.142 0-1.068.228-2.028.684-2.88a5.141 5.141 0 011.926-1.998c.816-.492 1.728-.738 2.736-.738.9 0 1.656.18 2.268.54a3.039 3.039 0 011.332 1.512l.396-1.98h1.278zm-6.228 8.424c.78 0 1.482-.186 2.106-.558a3.955 3.955 0 001.458-1.584c.36-.684.54-1.446.54-2.286 0-.924-.276-1.644-.828-2.16-.54-.528-1.302-.792-2.286-.792-.78 0-1.482.192-2.106.576a4.053 4.053 0 00-1.476 1.602c-.348.672-.522 1.428-.522 2.268 0 .924.27 1.644.81 2.16.552.516 1.32.774 2.304.774zm11.12-6.696a3.805 3.805 0 011.584-1.35c.636-.3 1.404-.45 2.304-.45l-.234 1.242-.36-.018c-1.02 0-1.86.294-2.52.882-.648.588-1.086 1.464-1.314 2.628L146.176 23h-1.278l1.872-9.468h1.224l-.324 1.728zm5.862 3.366c-.012.084-.018.21-.018.378 0 .96.27 1.692.81 2.196.552.504 1.368.756 2.448.756a4.9 4.9 0 001.746-.306c.552-.216 1.002-.51 1.35-.882l.576.918c-.444.444-1.002.792-1.674 1.044-.66.24-1.362.36-2.106.36-1.368 0-2.448-.36-3.24-1.08-.78-.72-1.17-1.704-1.17-2.952 0-1.056.222-2.01.666-2.862a5.095 5.095 0 011.872-1.998c.804-.492 1.704-.738 2.7-.738 1.26 0 2.262.36 3.006 1.08.744.708 1.116 1.686 1.116 2.934 0 .348-.042.732-.126 1.152h-7.956zm3.924-4.086c-.948 0-1.758.282-2.43.846-.672.564-1.128 1.326-1.368 2.286h6.75c.012-.084.018-.198.018-.342 0-.888-.27-1.572-.81-2.052-.54-.492-1.26-.738-2.16-.738zm-74.668 8.568c-.924 0-1.812-.15-2.664-.45-.84-.3-1.476-.684-1.908-1.152l.648-1.044c.42.456 1.002.822 1.746 1.098a6.573 6.573 0 002.304.414c1.116 0 2.01-.216 2.682-.648.684-.444 1.026-1.056 1.026-1.836 0-.42-.126-.762-.378-1.026a2.703 2.703 0 00-.954-.63 13.406 13.406 0 00-1.566-.54 19.168 19.168 0 01-1.908-.648 3.507 3.507 0 01-1.242-.936c-.336-.42-.504-.96-.504-1.62 0-.78.21-1.452.63-2.016.432-.576 1.026-1.014 1.782-1.314.768-.312 1.644-.468 2.628-.468.756 0 1.476.096 2.16.288.684.18 1.266.444 1.746.792l-.558 1.08a4.867 4.867 0 00-1.566-.756 6.299 6.299 0 00-1.854-.27c-1.104 0-1.992.228-2.664.684-.672.456-1.008 1.074-1.008 1.854 0 .432.132.786.396 1.062s.588.498.972.666c.396.156.924.33 1.584.522.78.228 1.41.45 1.89.666.48.204.888.504 1.224.9.336.384.504.894.504 1.53 0 .792-.222 1.476-.666 2.052-.432.564-1.038.996-1.818 1.296-.768.3-1.656.45-2.664.45z" fill="#01D2E4"/><defs><clipPath id="clip0"><path fill="#fff" d="M0 0h80v34.024H0z"/></clipPath></defs></svg>