<svg width="70" height="70" fill="none" xmlns="http://www.w3.org/2000/svg"><path d="M62.635 58.063A4.37 4.37 0 0067 53.698V9.25A6.257 6.257 0 0060.75 3H9.25A6.257 6.257 0 003 9.25v44.448a4.37 4.37 0 004.365 4.365H8.75V64.5h-4.5a1.25 1.25 0 000 2.5h61.5a1.25 1.25 0 000-2.5h-4.5v-6.437h1.385zM5.5 9.25A3.754 3.754 0 019.25 5.5h51.5a3.754 3.754 0 013.75 3.75V12H5.626c-.043 0-.085.002-.126.006V9.25zM16.75 64.5h-5.5V53.25h5.5V64.5zm14 0h-5.5V39.429h5.5V64.5zm14 0h-5.5V50h5.5v14.5zM60 35.062h-8c-.69 0-1.25.56-1.25 1.25v6.313a1.25 1.25 0 002.5 0v-5.063h5.5V64.5h-5.5V51.031a1.25 1.25 0 00-2.5 0V64.5h-3.5V48.75c0-.69-.56-1.25-1.25-1.25h-8c-.69 0-1.25.56-1.25 1.25V64.5h-3.5V38.179c0-.69-.56-1.25-1.25-1.25h-8c-.69 0-1.25.56-1.25 1.25V64.5h-3.5V52c0-.69-.56-1.25-1.25-1.25h-8c-.69 0-1.25.56-1.25 1.25v3.563H7.365A1.867 1.867 0 015.5 53.698V14.494c.041.004.083.006.125.006H64.5v39.198a1.867 1.867 0 01-1.865 1.865H61.25v-19.25c0-.69-.56-1.25-1.25-1.25z" fill="#01D2E4"/><path d="M59 7.5H30.758a1.25 1.25 0 000 2.5H59a1.25 1.25 0 000-2.5zm-42.116.366A1.26 1.26 0 0016 7.5c-.329 0-.651.134-.884.366a1.26 1.26 0 00-.366.884c0 .329.134.651.366.884.233.232.555.366.884.366.329 0 .651-.134.884-.366.232-.233.366-.555.366-.884a1.26 1.26 0 00-.366-.884zm-5 0A1.26 1.26 0 0011 7.5c-.329 0-.651.134-.884.366a1.26 1.26 0 00-.366.884c0 .329.134.651.366.884.233.232.555.366.884.366.329 0 .651-.134.884-.366.232-.233.366-.555.366-.884a1.26 1.26 0 00-.366-.884zm10 0A1.257 1.257 0 0021 7.5c-.329 0-.651.134-.884.366a1.26 1.26 0 00-.366.884c0 .329.134.651.366.884.233.232.555.366.884.366.329 0 .651-.134.884-.366.232-.233.366-.555.366-.884a1.26 1.26 0 00-.366-.884zm31 38.33A1.254 1.254 0 0052 45.83c-.329 0-.651.133-.884.366a1.26 1.26 0 00-.366.884c0 .329.134.651.366.884.233.232.555.366.884.366.329 0 .651-.134.884-.366a1.26 1.26 0 00.366-.884c0-.33-.134-.651-.366-.884zM56 19.992a4.505 4.505 0 00-4.5 4.5c0 .986.32 1.898.859 2.64l-8.303 8.303a4.472 4.472 0 00-2.172-.56c-.71 0-1.38.166-1.978.46l-8.67-8.67c.357-.645.56-1.385.56-2.173 0-2.48-2.018-4.5-4.5-4.5a4.505 4.505 0 00-4.5 4.5c0 .868.248 1.678.674 2.366l-7.381 7.381a4.472 4.472 0 00-2.172-.56 4.505 4.505 0 00-4.5 4.5c0 2.481 2.019 4.5 4.5 4.5s4.5-2.019 4.5-4.5c0-.787-.204-1.528-.56-2.172l7.47-7.47a4.473 4.473 0 001.97.455 4.47 4.47 0 002.171-.56l8.585 8.585a4.473 4.473 0 00-.67 2.358c0 2.481 2.02 4.5 4.5 4.5 2.482 0 4.5-2.019 4.5-4.5 0-.788-.203-1.528-.56-2.172l8.526-8.526a4.472 4.472 0 001.651.315c2.481 0 4.5-2.018 4.5-4.5 0-2.48-2.019-4.5-4.5-4.5zM13.917 40.18c-1.103 0-2-.897-2-2s.897-2 2-2 2 .897 2 2-.897 2-2 2zm13.38-13.687c-1.103 0-2-.897-2-2 0-1.102.897-2 2-2 1.102 0 2 .898 2 2 0 1.103-.898 2-2 2zm14.587 14.883c-1.103 0-2-.897-2-2s.897-2 2-2 2 .897 2 2-.897 2-2 2zM56 26.492c-1.103 0-2-.897-2-2 0-1.102.897-2 2-2s2 .898 2 2c0 1.103-.897 2-2 2zm-34.459-7.373a1.262 1.262 0 00-.884-.367c-.33 0-.652.134-.885.367a1.258 1.258 0 00-.365.883c0 .33.133.652.365.884.234.233.555.366.885.366.329 0 .65-.133.884-.366a1.26 1.26 0 00.366-.884c0-.328-.134-.65-.366-.883zM16 18.753h-6a1.25 1.25 0 000 2.5h6a1.25 1.25 0 000-2.5zm0 6h-6a1.25 1.25 0 000 2.5h6a1.25 1.25 0 000-2.5z" fill="#01D2E4"/></svg>