<svg width="16" height="16" fill="none" xmlns="http://www.w3.org/2000/svg"><path d="M15.988 3.447c0-.019.013-.036.012-.054l-4.883 4.704 4.877 4.555c.003-.033-.006-.066-.006-.099V3.447zm-5.616 5.374L8.38 10.74a.52.52 0 01-.717.006L5.674 8.892.766 13.624c.119.043.247.076.381.076h13.74c.2 0 .387-.06.55-.151L10.371 8.82z" fill="#FFED00"/><path d="M8.011 9.645l7.452-7.178a1.13 1.13 0 00-.576-.167H1.147c-.274 0-.526.106-.721.269L8.01 9.645zM0 3.622v8.931c0 .102.024.201.05.296L4.896 8.18 0 3.62z" fill="#FFED00"/></svg>