<svg width="30" height="30" fill="none" xmlns="http://www.w3.org/2000/svg"><g clip-path="url(#clip0)"><path d="M2.38 4.253c1.553-1.685 3.684-2.612 6-2.612 1.732 0 3.318.547 4.714 1.627A9.644 9.644 0 0115 5.258a9.64 9.64 0 011.906-1.99c1.396-1.08 2.982-1.627 4.713-1.627 2.317 0 4.448.927 6.001 2.612C29.155 5.917 30 8.19 30 10.656c0 2.538-.945 4.86-2.976 7.31-1.815 2.19-4.425 4.415-7.448 6.99-1.032.88-2.202 1.877-3.416 2.94a1.759 1.759 0 01-2.32 0 327.1 327.1 0 00-3.417-2.94c-3.022-2.575-5.632-4.8-7.448-6.99C.945 15.515 0 13.193 0 10.655 0 8.19.845 5.916 2.38 4.252z" fill="#FFED00"/></g><defs><clipPath id="clip0"><path fill="#fff" transform="matrix(-1 0 0 1 30 0)" d="M0 0h30v30H0z"/></clipPath></defs></svg>