<svg width="28" height="28" fill="none" xmlns="http://www.w3.org/2000/svg"><path d="M4.682 23.316a13.34 13.34 0 01-1.594-1.922l-.877-1.492a13.107 13.107 0 01-1.279-4.196 13.262 13.262 0 011.58-8.168.746.746 0 011.3.731c-2.561 4.546-1.769 10.3 1.925 13.993a11.61 11.61 0 008.265 3.423c3.122 0 6.058-1.216 8.266-3.423 4.557-4.555 4.557-11.97 0-16.526-3.697-3.696-9.456-4.486-14.004-1.92a.746.746 0 01-.733-1.3A13.271 13.271 0 0115.706.933a13.056 13.056 0 017.617 3.749c4.111 4.112 4.932 10.286 2.464 15.221l-.874 1.491c-.46.678-.99 1.323-1.59 1.923-2.49 2.49-5.8 3.86-9.321 3.86s-6.83-1.37-9.32-3.86z" fill="#01D2E4"/><path d="M5.408 14.58a.746.746 0 001.055 0l.532-.533v6.744c0 .412.334.746.746.746h12.524a.746.746 0 00.746-.746v-6.743l.532.532a.744.744 0 001.055 0 .746.746 0 000-1.055l-8.069-8.064a.746.746 0 00-1.054 0l-8.067 8.064a.746.746 0 000 1.055zm9.72 5.466h-2.25v-3.149h2.25v3.149zM14.001 7.043l5.517 5.514v7.489h-2.9V16.15a.746.746 0 00-.746-.745h-3.74a.746.746 0 00-.746.745v3.895h-2.9v-7.49l5.515-5.513z" fill="#01D2E4"/><path d="M12.628 12.993h2.749a.746.746 0 000-1.492h-2.75a.746.746 0 000 1.492zM5.735 5.738l.002-.002a.745.745 0 000-1.054.747.747 0 10-.53 1.275.741.741 0 00.528-.219z" fill="#01D2E4"/></svg>