<svg width="30" height="30" fill="none" xmlns="http://www.w3.org/2000/svg"><circle cx="15" cy="15" r="15" fill="#fff"/><g clip-path="url(#clip0)" fill="#01D2E4"><path d="M13.625 16.375c-1.527-1.528-1.872-3.055-1.95-3.667a.549.549 0 01.158-.459l1.236-1.235a.552.552 0 00.078-.683l-1.968-3.055a.552.552 0 00-.715-.201L7.305 8.562a.549.549 0 00-.303.549c.165 1.572.85 5.437 4.65 9.236 3.798 3.8 7.663 4.484 9.236 4.65a.549.549 0 00.548-.303l1.488-3.16a.552.552 0 00-.2-.713l-3.055-1.967a.552.552 0 00-.683.077l-1.235 1.236a.549.549 0 01-.46.157c-.611-.077-2.139-.422-3.666-1.95z"/><path d="M19.69 15.552a.552.552 0 01-.552-.552A4.143 4.143 0 0015 10.862a.552.552 0 010-1.103A5.247 5.247 0 0120.241 15a.552.552 0 01-.551.552z"/><path d="M22.448 15.552a.552.552 0 01-.552-.552A6.904 6.904 0 0015 8.103.552.552 0 1115 7a8.009 8.009 0 018 8 .552.552 0 01-.552.552z"/></g><defs><clipPath id="clip0"><path fill="#fff" transform="translate(7 7)" d="M0 0h16v16H0z"/></clipPath></defs></svg>