<svg width="40" height="40" fill="none" xmlns="http://www.w3.org/2000/svg"><circle cx="20" cy="20" r="18" fill="#fff" stroke="#fff" stroke-width="4"/><path d="M24.586 10h-9.172A5.42 5.42 0 0010 15.414v9.172A5.42 5.42 0 0015.414 30h9.172A5.42 5.42 0 0030 24.586v-9.172A5.42 5.42 0 0024.586 10zm4.242 14.586a4.246 4.246 0 01-4.242 4.242h-9.172a4.246 4.246 0 01-4.242-4.242v-9.172a4.246 4.246 0 014.242-4.242h9.172a4.246 4.246 0 014.242 4.242v9.172z" fill="#01D2E4"/><path d="M20 14.531A5.475 5.475 0 0014.53 20 5.475 5.475 0 0020 25.468 5.475 5.475 0 0025.468 20 5.475 5.475 0 0020 14.53zm0 9.765A4.301 4.301 0 0115.704 20 4.301 4.301 0 0120 15.704 4.301 4.301 0 0124.296 20 4.3 4.3 0 0120 24.296zm5.6-11.706c-.892 0-1.617.724-1.617 1.615s.725 1.616 1.616 1.616c.891 0 1.616-.725 1.616-1.616 0-.89-.725-1.616-1.616-1.616zm0 2.059a.444.444 0 110-.888.444.444 0 010 .888z" fill="#01D2E4"/></svg>