<svg width="20" height="20" fill="none" xmlns="http://www.w3.org/2000/svg"><g clip-path="url(#clip0)" fill="#FFED00"><path d="M8.282 11.718C6.373 9.81 5.942 7.9 5.845 7.136a.685.685 0 01.197-.574l1.544-1.544a.69.69 0 00.098-.854L5.224.344a.69.69 0 00-.893-.25L.38 1.953a.686.686 0 00-.378.684C.21 4.604 1.066 9.436 5.815 14.184c4.748 4.749 9.579 5.605 11.545 5.812a.686.686 0 00.686-.38l1.86-3.948a.69.69 0 00-.25-.892l-3.82-2.459a.69.69 0 00-.853.097l-1.545 1.545a.685.685 0 01-.573.197c-.765-.098-2.674-.529-4.583-2.438z"/><path d="M15.862 10.69a.69.69 0 01-.69-.69A5.178 5.178 0 0010 4.828a.69.69 0 010-1.38A6.559 6.559 0 0116.552 10a.69.69 0 01-.69.69z"/><path d="M19.31 10.69a.69.69 0 01-.69-.69A8.63 8.63 0 0010 1.38.69.69 0 0110 0c5.52.006 9.994 4.48 10 10a.69.69 0 01-.69.69z"/></g><defs><clipPath id="clip0"><path fill="#fff" d="M0 0h20v20H0z"/></clipPath></defs></svg>