<svg width="16" height="16" fill="none" xmlns="http://www.w3.org/2000/svg"><g clip-path="url(#clip0)" fill="#FFED00"><path d="M6.625 9.375C5.098 7.848 4.753 6.32 4.675 5.709a.548.548 0 01.158-.46L6.07 4.015a.552.552 0 00.078-.682L4.179.276a.552.552 0 00-.715-.201L.305 1.563a.549.549 0 00-.303.548c.165 1.572.85 5.438 4.65 9.236 3.798 3.8 7.663 4.485 9.236 4.65a.549.549 0 00.548-.303l1.488-3.16a.552.552 0 00-.2-.713L12.67 9.854a.552.552 0 00-.683.077l-1.235 1.236a.548.548 0 01-.46.158c-.611-.078-2.138-.423-3.666-1.95z"/><path d="M12.69 8.552A.552.552 0 0112.138 8 4.143 4.143 0 008 3.862.552.552 0 018 2.76 5.247 5.247 0 0113.241 8a.552.552 0 01-.551.552z"/><path d="M15.448 8.552A.552.552 0 0114.896 8 6.904 6.904 0 008 1.103.552.552 0 118 0a8.009 8.009 0 018 8 .552.552 0 01-.552.552z"/></g><defs><clipPath id="clip0"><path fill="#fff" d="M0 0h16v16H0z"/></clipPath></defs></svg>